{
  "accessors": [
    {
      "bufferView": 2,
      "componentType": 5126,
      "count": 3848,
      "max": [
        0.5636755228042603,
        1.3627784252166748,
        0.7741484045982361
      ],
      "min": [
        -1.3253930807113647,
        -0.8477395176887512,
        -1.4556694030761719
      ],
      "type": "VEC3"
    },
    {
      "bufferView": 2,
      "byteOffset": 46176,
      "componentType": 5126,
      "count": 3848,
      "max": [
        0.9999058246612549,
        0.9992080926895142,
        0.9999704360961914
      ],
      "min": [
        -0.9974238276481628,
        -0.9995543360710144,
        -0.9991589188575745
      ],
      "type": "VEC3"
    },
    {
      "bufferView": 3,
      "componentType": 5126,
      "count": 3848,
      "max": [
        0.9996876120567322,
        0.9966084361076355,
        0.9993941187858582,
        1.0
      ],
      "min": [
        -0.9997807741165161,
        -0.9995535612106323,
        -0.9997172355651855,
        -1.0
      ],
      "type": "VEC4"
    },
    {
      "bufferView": 1,
      "componentType": 5126,
      "count": 3848,
      "max": [
        0.9097901582717896,
        1.0
      ],
      "min": [
        0.0,
        0.0
      ],
      "type": "VEC2"
    },
    {
      "bufferView": 0,
      "componentType": 5125,
      "count": 20064,
      "type": "SCALAR"
    }
  ],
  "asset": {
    "extras": {
      "author": "Melon Polygons (https://sketchfab.com/Melonpolygons)",
      "license": "CC-BY-4.0 (http://creativecommons.org/licenses/by/4.0/)",
      "source": "https://sketchfab.com/3d-models/pot-f3de9f1ca8c74f418dfe1b4ceb71018e",
      "title": "Pot"
    },
    "generator": "Sketchfab-15.55.0",
    "version": "2.0"
  },
  "bufferViews": [
    {
      "buffer": 0,
      "byteLength": 80256,
      "name": "floatBufferViews",
      "target": 34963
    },
    {
      "buffer": 0,
      "byteLength": 30784,
      "byteOffset": 80256,
      "byteStride": 8,
      "name": "floatBufferViews",
      "target": 34962
    },
    {
      "buffer": 0,
      "byteLength": 92352,
      "byteOffset": 111040,
      "byteStride": 12,
      "name": "floatBufferViews",
      "target": 34962
    },
    {
      "buffer": 0,
      "byteLength": 61568,
      "byteOffset": 203392,
      "byteStride": 16,
      "name": "floatBufferViews",
      "target": 34962
    }
  ],
  "buffers": [
    {
      "byteLength": 264960,
      "uri": "scene.bin"
    }
  ],
  "extensionsUsed": [
    "KHR_materials_specular"
  ],
  "images": [
    {
      "uri": "textures/material_baseColor.png"
    },
    {
      "uri": "textures/material_metallicRoughness.png"
    },
    {
      "uri": "textures/material_normal.png"
    }
  ],
  "materials": [
    {
      "doubleSided": true,
      "extensions": {
        "KHR_materials_specular": {
          "specularColorFactor": [
            1.0,
            1.0,
            1.0
          ],
          "specularFactor": 0.0
        }
      },
      "name": "material",
      "normalTexture": {
        "index": 2,
        "scale": 0.364191586107691
      },
      "occlusionTexture": {
        "index": 1
      },
      "pbrMetallicRoughness": {
        "baseColorTexture": {
          "index": 0
        },
        "metallicRoughnessTexture": {
          "index": 1
        },
        "roughnessFactor": 0.8274310931233314
      }
    }
  ],
  "meshes": [
    {
      "name": "Pot_Pot_0",
      "primitives": [
        {
          "attributes": {
            "NORMAL": 1,
            "POSITION": 0,
            "TANGENT": 2,
            "TEXCOORD_0": 3
          },
          "indices": 4,
          "material": 0,
          "mode": 4
        }
      ]
    }
  ],
  "nodes": [
    {
      "children": [
        1
      ],
      "matrix": [
        1.0,
        0.0,
        0.0,
        0.0,
        0.0,
        2.220446049250313e-16,
        -1.0,
        0.0,
        0.0,
        1.0,
        2.220446049250313e-16,
        0.0,
        0.0,
        0.0,
        0.0,
        1.0
      ],
      "name": "Sketchfab_model"
    },
    {
      "children": [
        2
      ],
      "matrix": [
        0.009999999776482582,
        0.0,
        0.0,
        0.0,
        0.0,
        0.0,
        0.009999999776482582,
        0.0,
        0.0,
        -0.009999999776482582,
        0.0,
        0.0,
        0.0,
        0.0,
        0.0,
        1.0
      ],
      "name": "Pot_HP.fbx"
    },
    {
      "children": [
        3
      ],
      "name": "RootNode"
    },
    {
      "children": [
        4
      ],
      "matrix": [
        53.71833826850327,
        83.64058515855177,
        10.889955102150841,
        0.0,
        84.10192120189413,
        -54.09684074791316,
        0.6314041853790885,
        0.0,
        6.419232314244999,
        8.819482295662223,
        -99.40327051225356,
        0.0,
        -0.9585809707641602,
        103.14598083496094,
        -38.32632827758789,
        1.0
      ],
      "name": "Pot"
    },
    {
      "mesh": 0,
      "name": "Pot_Pot_0"
    }
  ],
  "samplers": [
    {
      "magFilter": 9729,
      "minFilter": 9987,
      "wrapS": 10497,
      "wrapT": 10497
    }
  ],
  "scene": 0,
  "scenes": [
    {
      "name": "Sketchfab_Scene",
      "nodes": [
        0
      ]
    }
  ],
  "textures": [
    {
      "sampler": 0,
      "source": 0
    },
    {
      "sampler": 0,
      "source": 1
    },
    {
      "sampler": 0,
      "source": 2
    }
  ]
}
