{
  "accessors": [
    {
      "bufferView": 2,
      "componentType": 5126,
      "count": 18164,
      "max": [
        558.7295532226563,
        321.5502624511719,
        366.3318786621094
      ],
      "min": [
        -558.72998046875,
        -321.5480041503906,
        -10.78909969329834
      ],
      "type": "VEC3"
    },
    {
      "bufferView": 2,
      "byteOffset": 217968,
      "componentType": 5126,
      "count": 18164,
      "max": [
        0.9999896883964539,
        1.0,
        1.0
      ],
      "min": [
        -0.999981701374054,
        -1.0,
        -1.0
      ],
      "type": "VEC3"
    },
    {
      "bufferView": 3,
      "componentType": 5126,
      "count": 18164,
      "max": [
        0.9996954202651978,
        0.9999998807907104,
        1.0,
        1.0
      ],
      "min": [
        -0.9998299479484558,
        -1.0,
        -0.9999994039535522,
        -1.0
      ],
      "type": "VEC4"
    },
    {
      "bufferView": 1,
      "componentType": 5126,
      "count": 18164,
      "max": [
        0.976963222026825,
        0.976963222026825
      ],
      "min": [
        -0.020769119262695313,
        0.023092985153198242
      ],
      "type": "VEC2"
    },
    {
      "bufferView": 0,
      "componentType": 5125,
      "count": 68280,
      "type": "SCALAR"
    },
    {
      "bufferView": 2,
      "byteOffset": 435936,
      "componentType": 5126,
      "count": 808,
      "max": [
        190.38088989257813,
        139.49575805664063,
        229.7587890625
      ],
      "min": [
        -188.64207458496094,
        -139.43463134765625,
        135.6414794921875
      ],
      "type": "VEC3"
    },
    {
      "bufferView": 2,
      "byteOffset": 445632,
      "componentType": 5126,
      "count": 808,
      "max": [
        0.9999352097511292,
        1.0,
        0.996835470199585
      ],
      "min": [
        -0.9999457001686096,
        -1.0,
        -0.9969208240509033
      ],
      "type": "VEC3"
    },
    {
      "bufferView": 1,
      "byteOffset": 145312,
      "componentType": 5126,
      "count": 808,
      "max": [
        0.9334165453910828,
        0.9989075660705566
      ],
      "min": [
        0.0010924178641289473,
        0.0010924339294433594
      ],
      "type": "VEC2"
    },
    {
      "bufferView": 0,
      "byteOffset": 273120,
      "componentType": 5125,
      "count": 3456,
      "type": "SCALAR"
    },
    {
      "bufferView": 2,
      "byteOffset": 455328,
      "componentType": 5126,
      "count": 2215,
      "max": [
        551.12451171875,
        316.6240234375,
        370.5565185546875
      ],
      "min": [
        -551.125,
        -316.62176513671875,
        11.195270538330078
      ],
      "type": "VEC3"
    },
    {
      "bufferView": 2,
      "byteOffset": 481908,
      "componentType": 5126,
      "count": 2215,
      "max": [
        0.9349440932273865,
        0.9301251769065857,
        0.9999874234199524
      ],
      "min": [
        -0.9788787961006165,
        -0.9331202507019043,
        -0.9994375705718994
      ],
      "type": "VEC3"
    },
    {
      "bufferView": 3,
      "byteOffset": 290624,
      "componentType": 5126,
      "count": 2215,
      "max": [
        0.9999983906745911,
        0.9999942183494568,
        0.9305922985076904,
        1.0
      ],
      "min": [
        -0.9393049478530884,
        -0.9985340237617493,
        -0.883463978767395,
        -1.0
      ],
      "type": "VEC4"
    },
    {
      "bufferView": 1,
      "byteOffset": 151776,
      "componentType": 5126,
      "count": 2215,
      "max": [
        0.9989224672317505,
        0.9989224672317505
      ],
      "min": [
        0.0010775338159874082,
        0.13190388679504395
      ],
      "type": "VEC2"
    },
    {
      "bufferView": 0,
      "byteOffset": 286944,
      "componentType": 5125,
      "count": 10398,
      "type": "SCALAR"
    }
  ],
  "asset": {
    "extras": {
      "author": "Mehdi Shahsavan (https://sketchfab.com/ahmagh2e)",
      "license": "CC-BY-4.0 (http://creativecommons.org/licenses/by/4.0/)",
      "source": "https://sketchfab.com/3d-models/tent-20-mb-9e9e3237f28943128796db497595f235",
      "title": "Tent_20_MB"
    },
    "generator": "Sketchfab-16.59.0",
    "version": "2.0"
  },
  "bufferViews": [
    {
      "buffer": 0,
      "byteLength": 328536,
      "name": "floatBufferViews",
      "target": 34963
    },
    {
      "buffer": 0,
      "byteLength": 169496,
      "byteOffset": 328536,
      "byteStride": 8,
      "name": "floatBufferViews",
      "target": 34962
    },
    {
      "buffer": 0,
      "byteLength": 508488,
      "byteOffset": 498032,
      "byteStride": 12,
      "name": "floatBufferViews",
      "target": 34962
    },
    {
      "buffer": 0,
      "byteLength": 326064,
      "byteOffset": 1006520,
      "byteStride": 16,
      "name": "floatBufferViews",
      "target": 34962
    }
  ],
  "buffers": [
    {
      "byteLength": 1332584,
      "uri": "scene.bin"
    }
  ],
  "extensionsUsed": [
    "KHR_materials_transmission",
    "KHR_materials_specular"
  ],
  "images": [
    {
      "uri": "textures/Base_baseColor.png"
    },
    {
      "uri": "textures/Base_metallicRoughness.png"
    },
    {
      "uri": "textures/Base_normal.png"
    },
    {
      "uri": "textures/glass_baseColor.png"
    },
    {
      "uri": "textures/glass_metallicRoughness.png"
    },
    {
      "uri": "textures/glass_transmission.png"
    },
    {
      "uri": "textures/Roof_baseColor.png"
    },
    {
      "uri": "textures/Roof_metallicRoughness.png"
    },
    {
      "uri": "textures/Roof_normal.png"
    }
  ],
  "materials": [
    {
      "doubleSided": true,
      "name": "Base",
      "normalTexture": {
        "index": 2
      },
      "pbrMetallicRoughness": {
        "baseColorTexture": {
          "index": 0
        },
        "metallicRoughnessTexture": {
          "index": 1
        }
      }
    },
    {
      "alphaMode": "BLEND",
      "doubleSided": true,
      "extensions": {
        "KHR_materials_specular": {
          "specularColorFactor": [
            1.0,
            1.0,
            1.0
          ],
          "specularFactor": 0.0
        },
        "KHR_materials_transmission": {
          "transmissionFactor": 1.0,
          "transmissionTexture": {
            "index": 5
          }
        }
      },
      "name": "glass",
      "pbrMetallicRoughness": {
        "baseColorFactor": [
          0.0,
          0.0,
          0.0,
          1.0
        ],
        "baseColorTexture": {
          "index": 3
        },
        "metallicFactor": 0.0,
        "metallicRoughnessTexture": {
          "index": 4
        },
        "roughnessFactor": 0.10268994349949134
      }
    },
    {
      "doubleSided": true,
      "name": "Roof",
      "normalTexture": {
        "index": 8
      },
      "pbrMetallicRoughness": {
        "baseColorTexture": {
          "index": 6
        },
        "metallicFactor": 0.0,
        "metallicRoughnessTexture": {
          "index": 7
        }
      }
    }
  ],
  "meshes": [
    {
      "name": "Base_Base_0",
      "primitives": [
        {
          "attributes": {
            "NORMAL": 1,
            "POSITION": 0,
            "TANGENT": 2,
            "TEXCOORD_0": 3
          },
          "indices": 4,
          "material": 0,
          "mode": 4
        }
      ]
    },
    {
      "name": "glass_glass_0",
      "primitives": [
        {
          "attributes": {
            "NORMAL": 6,
            "POSITION": 5,
            "TEXCOORD_0": 7
          },
          "indices": 8,
          "material": 1,
          "mode": 4
        }
      ]
    },
    {
      "name": "Roof_Roof_0",
      "primitives": [
        {
          "attributes": {
            "NORMAL": 10,
            "POSITION": 9,
            "TANGENT": 11,
            "TEXCOORD_0": 12
          },
          "indices": 13,
          "material": 2,
          "mode": 4
        }
      ]
    }
  ],
  "nodes": [
    {
      "children": [
        1
      ],
      "matrix": [
        1.0,
        0.0,
        0.0,
        0.0,
        0.0,
        2.220446049250313e-16,
        -1.0,
        0.0,
        0.0,
        1.0,
        2.220446049250313e-16,
        0.0,
        0.0,
        0.0,
        0.0,
        1.0
      ],
      "name": "Sketchfab_model"
    },
    {
      "children": [
        2
      ],
      "matrix": [
        0.009999999776482582,
        0.0,
        0.0,
        0.0,
        0.0,
        0.0,
        0.009999999776482582,
        0.0,
        0.0,
        -0.009999999776482582,
        0.0,
        0.0,
        0.0,
        0.0,
        0.0,
        1.0
      ],
      "name": "a39d6b1a73af4471b355e2027e488b49.fbx"
    },
    {
      "children": [
        3,
        5,
        7,
        9
      ],
      "name": "RootNode"
    },
    {
      "children": [
        4
      ],
      "matrix": [
        0.5645238283686028,
        -0.29360113710995106,
        -0.7714345205471428,
        0.0,
        0.1733863168710245,
        0.9559280162688735,
        -0.23693630543704564,
        0.0,
        0.807000639606907,
        -1.1102230246251565e-16,
        0.5905505631815475,
        0.0,
        -507.0044250488281,
        363.8212585449219,
        591.9404907226563,
        1.0
      ],
      "name": "CINEMA_4D_Editor"
    },
    {
      "name": "Object_4"
    },
    {
      "children": [
        6
      ],
      "matrix": [
        1.0,
        0.0,
        0.0,
        0.0,
        0.0,
        2.220446049250313e-16,
        -1.0,
        0.0,
        0.0,
        1.0,
        2.220446049250313e-16,
        0.0,
        0.0,
        0.0,
        0.0,
        1.0
      ],
      "name": "Base"
    },
    {
      "mesh": 0,
      "name": "Base_Base_0"
    },
    {
      "children": [
        8
      ],
      "matrix": [
        1.0,
        0.0,
        0.0,
        0.0,
        0.0,
        2.220446049250313e-16,
        -1.0,
        0.0,
        0.0,
        1.0,
        2.220446049250313e-16,
        0.0,
        0.0,
        0.0,
        0.0,
        1.0
      ],
      "name": "glass"
    },
    {
      "mesh": 1,
      "name": "glass_glass_0"
    },
    {
      "children": [
        10
      ],
      "matrix": [
        1.0,
        0.0,
        0.0,
        0.0,
        0.0,
        2.220446049250313e-16,
        -1.0,
        0.0,
        0.0,
        1.0,
        2.220446049250313e-16,
        0.0,
        0.0,
        0.0,
        0.0,
        1.0
      ],
      "name": "Roof"
    },
    {
      "mesh": 2,
      "name": "Roof_Roof_0"
    }
  ],
  "samplers": [
    {
      "magFilter": 9729,
      "minFilter": 9987,
      "wrapS": 10497,
      "wrapT": 10497
    }
  ],
  "scene": 0,
  "scenes": [
    {
      "name": "Sketchfab_Scene",
      "nodes": [
        0
      ]
    }
  ],
  "textures": [
    {
      "sampler": 0,
      "source": 0
    },
    {
      "sampler": 0,
      "source": 1
    },
    {
      "sampler": 0,
      "source": 2
    },
    {
      "sampler": 0,
      "source": 3
    },
    {
      "sampler": 0,
      "source": 4
    },
    {
      "sampler": 0,
      "source": 5
    },
    {
      "sampler": 0,
      "source": 6
    },
    {
      "sampler": 0,
      "source": 7
    },
    {
      "sampler": 0,
      "source": 8
    }
  ]
}
