{
  "accessors": [
    {
      "bufferView": 2,
      "componentType": 5126,
      "count": 54,
      "max": [
        14.523969650268555,
        21.430240631103516,
        6.385933876037598
      ],
      "min": [
        6.512653827667236,
        11.633170127868652,
        2.34116792678833
      ],
      "type": "VEC3"
    },
    {
      "bufferView": 2,
      "byteOffset": 648,
      "componentType": 5126,
      "count": 54,
      "max": [
        0.7839043140411377,
        0.810663104057312,
        0.9746657013893127
      ],
      "min": [
        -0.8872612714767456,
        -0.8977714776992798,
        -0.999579906463623
      ],
      "type": "VEC3"
    },
    {
      "bufferView": 1,
      "componentType": 5126,
      "count": 54,
      "max": [
        0.969209611415863,
        0.833927571773529
      ],
      "min": [
        0.11507490277290344,
        0.38669541478157043
      ],
      "type": "VEC2"
    },
    {
      "bufferView": 0,
      "componentType": 5125,
      "count": 54,
      "type": "SCALAR"
    },
    {
      "bufferView": 2,
      "byteOffset": 1296,
      "componentType": 5126,
      "count": 32,
      "max": [
        8.417863845825195,
        8.326499938964844,
        60.05598831176758
      ],
      "min": [
        2.2459959983825684,
        -13.181739807128906,
        43.30585861206055
      ],
      "type": "VEC3"
    },
    {
      "bufferView": 2,
      "byteOffset": 1680,
      "componentType": 5126,
      "count": 32,
      "max": [
        0.9973120093345642,
        0.7396512627601624,
        0.26937758922576904
      ],
      "min": [
        -0.9971137046813965,
        -0.728977382183075,
        -0.27050790190696716
      ],
      "type": "VEC3"
    },
    {
      "bufferView": 1,
      "byteOffset": 432,
      "componentType": 5126,
      "count": 32,
      "max": [
        1.0,
        1.0
      ],
      "min": [
        -5.9604641222676946e-08,
        -1.7881390590446244e-07
      ],
      "type": "VEC2"
    },
    {
      "bufferView": 0,
      "byteOffset": 216,
      "componentType": 5125,
      "count": 144,
      "type": "SCALAR"
    },
    {
      "bufferView": 2,
      "byteOffset": 2064,
      "componentType": 5126,
      "count": 1346,
      "max": [
        5.722318172454834,
        2.91959810256958,
        57.749691009521484
      ],
      "min": [
        3.1532959938049316,
        -8.694725036621094,
        45.93537139892578
      ],
      "type": "VEC3"
    },
    {
      "bufferView": 2,
      "byteOffset": 18216,
      "componentType": 5126,
      "count": 1346,
      "max": [
        0.9898430109024048,
        0.9906021952629089,
        0.9996551871299744
      ],
      "min": [
        -0.9898430109024048,
        -0.9908612966537476,
        -0.9985554218292236
      ],
      "type": "VEC3"
    },
    {
      "bufferView": 1,
      "byteOffset": 688,
      "componentType": 5126,
      "count": 1346,
      "max": [
        1.0,
        1.0
      ],
      "min": [
        0.0,
        0.0
      ],
      "type": "VEC2"
    },
    {
      "bufferView": 0,
      "byteOffset": 792,
      "componentType": 5125,
      "count": 3702,
      "type": "SCALAR"
    },
    {
      "bufferView": 2,
      "byteOffset": 34368,
      "componentType": 5126,
      "count": 171,
      "max": [
        11.202759742736816,
        17.837350845336914,
        72.21967315673828
      ],
      "min": [
        1.7990260124206543,
        -13.538310050964355,
        3.972862958908081
      ],
      "type": "VEC3"
    },
    {
      "bufferView": 2,
      "byteOffset": 36420,
      "componentType": 5126,
      "count": 171,
      "max": [
        0.9918692708015442,
        0.9957333207130432,
        0.9990661144256592
      ],
      "min": [
        -0.9918692708015442,
        -0.9957333207130432,
        -0.9990661144256592
      ],
      "type": "VEC3"
    },
    {
      "bufferView": 1,
      "byteOffset": 11456,
      "componentType": 5126,
      "count": 171,
      "max": [
        1.0,
        1.0
      ],
      "min": [
        0.0,
        0.0
      ],
      "type": "VEC2"
    },
    {
      "bufferView": 0,
      "byteOffset": 15600,
      "componentType": 5125,
      "count": 300,
      "type": "SCALAR"
    },
    {
      "bufferView": 2,
      "byteOffset": 38472,
      "componentType": 5126,
      "count": 9621,
      "max": [
        12.829719543457031,
        25.812999725341797,
        77.72969055175781
      ],
      "min": [
        -2.053380012512207,
        -18.485210418701172,
        5.374542236328125
      ],
      "type": "VEC3"
    },
    {
      "bufferView": 2,
      "byteOffset": 153924,
      "componentType": 5126,
      "count": 9621,
      "max": [
        0.9999493956565857,
        0.9998784065246582,
        0.9998865723609924
      ],
      "min": [
        -0.9999493956565857,
        -0.9998784065246582,
        -0.9998865127563477
      ],
      "type": "VEC3"
    },
    {
      "bufferView": 1,
      "byteOffset": 12824,
      "componentType": 5126,
      "count": 9621,
      "max": [
        1.0,
        1.0
      ],
      "min": [
        0.0,
        0.0
      ],
      "type": "VEC2"
    },
    {
      "bufferView": 0,
      "byteOffset": 16800,
      "componentType": 5125,
      "count": 46764,
      "type": "SCALAR"
    },
    {
      "bufferView": 2,
      "byteOffset": 269376,
      "componentType": 5126,
      "count": 2324,
      "max": [
        10.887969970703125,
        25.18497085571289,
        75.69146728515625
      ],
      "min": [
        -0.6413320899009705,
        -0.2485550045967102,
        10.007619857788086
      ],
      "type": "VEC3"
    },
    {
      "bufferView": 2,
      "byteOffset": 297264,
      "componentType": 5126,
      "count": 2324,
      "max": [
        0.9991273880004883,
        0.9981924295425415,
        0.9994155168533325
      ],
      "min": [
        -0.9991273880004883,
        -0.9981924295425415,
        -0.9994155168533325
      ],
      "type": "VEC3"
    },
    {
      "bufferView": 1,
      "byteOffset": 89792,
      "componentType": 5126,
      "count": 2324,
      "max": [
        1.0,
        1.0
      ],
      "min": [
        0.0,
        0.0
      ],
      "type": "VEC2"
    },
    {
      "bufferView": 0,
      "byteOffset": 203856,
      "componentType": 5125,
      "count": 11070,
      "type": "SCALAR"
    },
    {
      "bufferView": 2,
      "byteOffset": 325152,
      "componentType": 5126,
      "count": 1005,
      "max": [
        8.830435752868652,
        7.341815948486328,
        72.52931213378906
      ],
      "min": [
        0.757005512714386,
        -12.112339973449707,
        56.85976028442383
      ],
      "type": "VEC3"
    },
    {
      "bufferView": 2,
      "byteOffset": 337212,
      "componentType": 5126,
      "count": 1005,
      "max": [
        0.9999589323997498,
        0.9992924928665161,
        0.9992873072624207
      ],
      "min": [
        -0.9999589323997498,
        -0.9992924928665161,
        -0.9992873072624207
      ],
      "type": "VEC3"
    },
    {
      "bufferView": 1,
      "byteOffset": 108384,
      "componentType": 5126,
      "count": 1005,
      "max": [
        0.9230769276618958,
        1.0
      ],
      "min": [
        0.0,
        0.0
      ],
      "type": "VEC2"
    },
    {
      "bufferView": 0,
      "byteOffset": 248136,
      "componentType": 5125,
      "count": 5052,
      "type": "SCALAR"
    },
    {
      "bufferView": 2,
      "byteOffset": 349272,
      "componentType": 5126,
      "count": 432,
      "max": [
        9.450543403625488,
        17.074100494384766,
        70.87355041503906
      ],
      "min": [
        2.292954921722412,
        -12.749890327453613,
        43.807159423828125
      ],
      "type": "VEC3"
    },
    {
      "bufferView": 2,
      "byteOffset": 354456,
      "componentType": 5126,
      "count": 432,
      "max": [
        0.8312045931816101,
        0.9973242282867432,
        0.9606434106826782
      ],
      "min": [
        -0.8312045931816101,
        -0.9973242282867432,
        -0.9606434106826782
      ],
      "type": "VEC3"
    },
    {
      "bufferView": 1,
      "byteOffset": 116424,
      "componentType": 5126,
      "count": 432,
      "max": [
        0.9666666984558105,
        1.0
      ],
      "min": [
        0.0,
        0.0
      ],
      "type": "VEC2"
    },
    {
      "bufferView": 0,
      "byteOffset": 268344,
      "componentType": 5125,
      "count": 648,
      "type": "SCALAR"
    },
    {
      "bufferView": 2,
      "byteOffset": 359640,
      "componentType": 5126,
      "count": 156,
      "max": [
        8.20021915435791,
        17.867610931396484,
        72.860107421875
      ],
      "min": [
        1.7898650169372559,
        -13.448349952697754,
        70.81855773925781
      ],
      "type": "VEC3"
    },
    {
      "bufferView": 2,
      "byteOffset": 361512,
      "componentType": 5126,
      "count": 156,
      "max": [
        0.9777143001556396,
        0.8274188041687012,
        0.9845366477966309
      ],
      "min": [
        -0.9224362969398499,
        -0.9906291961669922,
        -0.9995532035827637
      ],
      "type": "VEC3"
    },
    {
      "bufferView": 1,
      "byteOffset": 119880,
      "componentType": 5126,
      "count": 156,
      "max": [
        0.9278604984283447,
        0.9117739200592041
      ],
      "min": [
        0.04436540976166725,
        0.316585510969162
      ],
      "type": "VEC2"
    },
    {
      "bufferView": 0,
      "byteOffset": 270936,
      "componentType": 5125,
      "count": 156,
      "type": "SCALAR"
    }
  ],
  "asset": {
    "extras": {
      "author": "Anticipateants (https://sketchfab.com/anticipateants)",
      "license": "CC-BY-4.0 (http://creativecommons.org/licenses/by/4.0/)",
      "source": "https://sketchfab.com/3d-models/vine-invaded-sign-44f35f321b5b497f808560070bf2a46b",
      "title": "Vine Invaded Sign"
    },
    "generator": "Sketchfab-12.82.2",
    "version": "2.0"
  },
  "bufferViews": [
    {
      "buffer": 0,
      "byteLength": 271560,
      "name": "floatBufferViews",
      "target": 34963
    },
    {
      "buffer": 0,
      "byteLength": 121128,
      "byteOffset": 271560,
      "byteStride": 8,
      "name": "floatBufferViews",
      "target": 34962
    },
    {
      "buffer": 0,
      "byteLength": 363384,
      "byteOffset": 392688,
      "byteStride": 12,
      "name": "floatBufferViews",
      "target": 34962
    }
  ],
  "buffers": [
    {
      "byteLength": 756072,
      "uri": "scene.bin"
    }
  ],
  "materials": [
    {
      "doubleSided": true,
      "name": "FlatBEBEBE",
      "pbrMetallicRoughness": {
        "baseColorFactor": [
          0.745098,
          0.745098,
          0.745098,
          1.0
        ],
        "metallicFactor": 0.0
      }
    },
    {
      "doubleSided": true,
      "name": "Standard1F150B",
      "pbrMetallicRoughness": {
        "baseColorFactor": [
          0.121569,
          0.0823529,
          0.0431373,
          1.0
        ],
        "metallicFactor": 0.0
      }
    },
    {
      "doubleSided": true,
      "name": "Standard22180B",
      "pbrMetallicRoughness": {
        "baseColorFactor": [
          0.133333,
          0.0941176,
          0.0431373,
          1.0
        ],
        "metallicFactor": 0.0
      }
    },
    {
      "doubleSided": true,
      "name": "Standard261A0C",
      "pbrMetallicRoughness": {
        "baseColorFactor": [
          0.14902,
          0.101961,
          0.0470588,
          1.0
        ],
        "metallicFactor": 0.0
      }
    },
    {
      "doubleSided": true,
      "name": "Standard283222",
      "pbrMetallicRoughness": {
        "baseColorFactor": [
          0.156863,
          0.196078,
          0.133333,
          1.0
        ],
        "metallicFactor": 0.0
      }
    },
    {
      "doubleSided": true,
      "name": "Standard382C1C",
      "pbrMetallicRoughness": {
        "baseColorFactor": [
          0.219608,
          0.172549,
          0.109804,
          1.0
        ],
        "metallicFactor": 0.0
      }
    },
    {
      "doubleSided": true,
      "name": "Standard6F6F6F",
      "pbrMetallicRoughness": {
        "baseColorFactor": [
          0.435294,
          0.435294,
          0.435294,
          1.0
        ],
        "metallicFactor": 0.0
      }
    },
    {
      "doubleSided": true,
      "name": "StandardBEBEBE",
      "pbrMetallicRoughness": {
        "baseColorFactor": [
          0.745098,
          0.745098,
          0.745098,
          1.0
        ],
        "metallicFactor": 0.0
      }
    }
  ],
  "meshes": [
    {
      "name": "Object_0",
      "primitives": [
        {
          "attributes": {
            "NORMAL": 1,
            "POSITION": 0,
            "TEXCOORD_0": 2
          },
          "indices": 3,
          "material": 0,
          "mode": 4
        }
      ]
    },
    {
      "name": "Object_1",
      "primitives": [
        {
          "attributes": {
            "NORMAL": 5,
            "POSITION": 4,
            "TEXCOORD_0": 6
          },
          "indices": 7,
          "material": 1,
          "mode": 4
        }
      ]
    },
    {
      "name": "Object_2",
      "primitives": [
        {
          "attributes": {
            "NORMAL": 9,
            "POSITION": 8,
            "TEXCOORD_0": 10
          },
          "indices": 11,
          "material": 2,
          "mode": 4
        }
      ]
    },
    {
      "name": "Object_3",
      "primitives": [
        {
          "attributes": {
            "NORMAL": 13,
            "POSITION": 12,
            "TEXCOORD_0": 14
          },
          "indices": 15,
          "material": 3,
          "mode": 4
        }
      ]
    },
    {
      "name": "Object_4",
      "primitives": [
        {
          "attributes": {
            "NORMAL": 17,
            "POSITION": 16,
            "TEXCOORD_0": 18
          },
          "indices": 19,
          "material": 4,
          "mode": 4
        }
      ]
    },
    {
      "name": "Object_5",
      "primitives": [
        {
          "attributes": {
            "NORMAL": 21,
            "POSITION": 20,
            "TEXCOORD_0": 22
          },
          "indices": 23,
          "material": 4,
          "mode": 4
        }
      ]
    },
    {
      "name": "Object_6",
      "primitives": [
        {
          "attributes": {
            "NORMAL": 25,
            "POSITION": 24,
            "TEXCOORD_0": 26
          },
          "indices": 27,
          "material": 5,
          "mode": 4
        }
      ]
    },
    {
      "name": "Object_7",
      "primitives": [
        {
          "attributes": {
            "NORMAL": 29,
            "POSITION": 28,
            "TEXCOORD_0": 30
          },
          "indices": 31,
          "material": 6,
          "mode": 4
        }
      ]
    },
    {
      "name": "Object_8",
      "primitives": [
        {
          "attributes": {
            "NORMAL": 33,
            "POSITION": 32,
            "TEXCOORD_0": 34
          },
          "indices": 35,
          "material": 7,
          "mode": 4
        }
      ]
    }
  ],
  "nodes": [
    {
      "children": [
        1
      ],
      "matrix": [
        1.0,
        0.0,
        0.0,
        0.0,
        0.0,
        2.220446049250313e-16,
        -1.0,
        0.0,
        0.0,
        1.0,
        2.220446049250313e-16,
        0.0,
        0.0,
        0.0,
        0.0,
        1.0
      ],
      "name": "Sketchfab_model"
    },
    {
      "children": [
        2,
        3,
        4,
        5,
        6,
        7,
        8,
        9,
        10
      ],
      "name": "DFVinesign.obj.cleaner.materialmerger.gles"
    },
    {
      "mesh": 0,
      "name": "Object_2"
    },
    {
      "mesh": 1,
      "name": "Object_3"
    },
    {
      "mesh": 2,
      "name": "Object_4"
    },
    {
      "mesh": 3,
      "name": "Object_5"
    },
    {
      "mesh": 4,
      "name": "Object_6"
    },
    {
      "mesh": 5,
      "name": "Object_7"
    },
    {
      "mesh": 6,
      "name": "Object_8"
    },
    {
      "mesh": 7,
      "name": "Object_9"
    },
    {
      "mesh": 8,
      "name": "Object_10"
    }
  ],
  "scene": 0,
  "scenes": [
    {
      "name": "Sketchfab_Scene",
      "nodes": [
        0
      ]
    }
  ]
}
