{
  "accessors": [
    {
      "bufferView": 2,
      "componentType": 5126,
      "count": 36912,
      "max": [
        47.639286041259766,
        95.46678161621094,
        47.639286041259766
      ],
      "min": [
        -47.63928985595703,
        0.18819570541381836,
        -47.639286041259766
      ],
      "type": "VEC3"
    },
    {
      "bufferView": 2,
      "byteOffset": 442944,
      "componentType": 5126,
      "count": 36912,
      "max": [
        1.0,
        1.0,
        1.0
      ],
      "min": [
        -1.0,
        -1.0,
        -1.0
      ],
      "type": "VEC3"
    },
    {
      "bufferView": 1,
      "componentType": 5126,
      "count": 36912,
      "max": [
        0.9969995617866516,
        0.9979720711708069
      ],
      "min": [
        0.002027965849265456,
        0.0020279712043702602
      ],
      "type": "VEC2"
    },
    {
      "bufferView": 1,
      "byteOffset": 295296,
      "componentType": 5126,
      "count": 36912,
      "max": [
        0.9969995617866516,
        0.9979720711708069
      ],
      "min": [
        0.002027965849265456,
        0.0020279712043702602
      ],
      "type": "VEC2"
    },
    {
      "bufferView": 0,
      "componentType": 5125,
      "count": 193536,
      "type": "SCALAR"
    }
  ],
  "asset": {
    "extras": {
      "author": "B1Blender (https://sketchfab.com/B1Blender)",
      "license": "CC-BY-4.0 (http://creativecommons.org/licenses/by/4.0/)",
      "source": "https://sketchfab.com/3d-models/3d-free-volley-ball-game-asset-pbr-texture-model-d12f29a3a619473ab153fd894fcd39c5",
      "title": "3D Free Volley Ball Game Asset PBR Texture Model"
    },
    "generator": "Sketchfab-16.15.0",
    "version": "2.0"
  },
  "bufferViews": [
    {
      "buffer": 0,
      "byteLength": 774144,
      "name": "floatBufferViews",
      "target": 34963
    },
    {
      "buffer": 0,
      "byteLength": 590592,
      "byteOffset": 774144,
      "byteStride": 8,
      "name": "floatBufferViews",
      "target": 34962
    },
    {
      "buffer": 0,
      "byteLength": 885888,
      "byteOffset": 1364736,
      "byteStride": 12,
      "name": "floatBufferViews",
      "target": 34962
    }
  ],
  "buffers": [
    {
      "byteLength": 2250624,
      "uri": "scene.bin"
    }
  ],
  "images": [
    {
      "uri": "textures/Material.001_baseColor.png"
    },
    {
      "uri": "textures/Material.001_metallicRoughness.png"
    }
  ],
  "materials": [
    {
      "doubleSided": true,
      "name": "Material.001",
      "pbrMetallicRoughness": {
        "baseColorTexture": {
          "index": 0
        },
        "metallicFactor": 0.0,
        "metallicRoughnessTexture": {
          "index": 1
        }
      }
    }
  ],
  "meshes": [
    {
      "name": "volley ball_Material.001_0",
      "primitives": [
        {
          "attributes": {
            "NORMAL": 1,
            "POSITION": 0,
            "TEXCOORD_0": 2,
            "TEXCOORD_1": 3
          },
          "indices": 4,
          "material": 0,
          "mode": 4
        }
      ]
    }
  ],
  "nodes": [
    {
      "children": [
        1
      ],
      "matrix": [
        0.29908522963523865,
        0.0,
        0.0,
        0.0,
        0.0,
        6.641026165326883e-17,
        -0.29908522963523865,
        0.0,
        0.0,
        0.29908522963523865,
        6.641026165326883e-17,
        0.0,
        0.0,
        0.0,
        0.0,
        1.0
      ],
      "name": "Sketchfab_model"
    },
    {
      "children": [
        2
      ],
      "matrix": [
        0.009999999776482582,
        0.0,
        0.0,
        0.0,
        0.0,
        0.0,
        0.009999999776482582,
        0.0,
        0.0,
        -0.009999999776482582,
        0.0,
        0.0,
        0.0,
        0.0,
        0.0,
        1.0
      ],
      "name": "bac70b782a184fc686c3f75ac8fa300c.fbx"
    },
    {
      "children": [
        3
      ],
      "name": "RootNode"
    },
    {
      "children": [
        4
      ],
      "name": "volley ball"
    },
    {
      "mesh": 0,
      "name": "volley ball_Material.001_0"
    }
  ],
  "samplers": [
    {
      "magFilter": 9729,
      "minFilter": 9987,
      "wrapS": 10497,
      "wrapT": 10497
    }
  ],
  "scene": 0,
  "scenes": [
    {
      "name": "Sketchfab_Scene",
      "nodes": [
        0
      ]
    }
  ],
  "textures": [
    {
      "sampler": 0,
      "source": 0
    },
    {
      "sampler": 0,
      "source": 1
    }
  ]
}
